<svg xmlns="http://www.w3.org/2000/svg" data-name="Layer 1" viewBox="0 0 100 125" x="0px" y="0px"><path d="M50,92.5A42.5,42.5,0,1,1,92.5,50,42.55,42.55,0,0,1,50,92.5Zm0-80A37.5,37.5,0,1,0,87.5,50,37.54,37.54,0,0,0,50,12.5Z"/><circle cx="34.13" cy="42" r="5.13"/><circle cx="65.88" cy="42" r="5.13"/><path d="M34.12,73.5a2.5,2.5,0,0,1-1.9-4.12,24.47,24.47,0,0,1,15.57-7.81c6.63-.53,13.27,2,19.72,7.54a2.5,2.5,0,0,1-3.25,3.8c-5.4-4.63-10.8-6.76-16.07-6.35A19.42,19.42,0,0,0,36,72.62,2.49,2.49,0,0,1,34.12,73.5Z"/></svg>